<svg id="visual" viewBox="0 0 960 540" width="960" height="540" xmlns="http://www.w3.org/2000/svg" xmlns:xlink="http://www.w3.org/1999/xlink" version="1.1"><rect x="0" y="0" width="960" height="540" fill="#fff"></rect><defs><linearGradient id="grad1_0" x1="43.8%" y1="0%" x2="100%" y2="100%"><stop offset="14.444444444444446%" stop-color="#ffffff" stop-opacity="1"></stop><stop offset="85.55555555555554%" stop-color="#ffffff" stop-opacity="1"></stop></linearGradient></defs><defs><linearGradient id="grad2_0" x1="0%" y1="0%" x2="56.3%" y2="100%"><stop offset="14.444444444444446%" stop-color="#ffffff" stop-opacity="1"></stop><stop offset="85.55555555555554%" stop-color="#ffffff" stop-opacity="1"></stop></linearGradient></defs><g transform="translate(960, 0)"><path d="M0 243C-30 234.3 -60 225.6 -88.8 214.3C-117.6 203.1 -145.2 189.2 -169 169C-192.8 148.8 -212.8 122.2 -224.5 93C-236.2 63.8 -239.6 31.9 -243 0L0 0Z" fill="#4FACF7"></path></g><g transform="translate(0, 540)"><path d="M0 -243C31.8 -240 63.6 -237 93 -224.5C122.4 -212 149.4 -190.1 164 -164C178.7 -137.9 181.1 -107.6 192.2 -79.6C203.3 -51.6 223.1 -25.8 243 0L0 0Z" fill="#4FACF7"></path></g></svg>